<svg xmlns="http://www.w3.org/2000/svg" xmlns:xlink="http://www.w3.org/1999/xlink" width="106.395" height="23.25" viewBox="0 0 106.395 23.25">
  <defs>
    <style>
      .cls-1 {
        fill: url(#linear-gradient);
      }
    </style>
    <linearGradient id="linear-gradient" y1="0.5" x2="0.986" y2="0.5" gradientUnits="objectBoundingBox">
      <stop offset="0" stop-color="#cc1143"/>
      <stop offset="0.458" stop-color="#e01633"/>
      <stop offset="1" stop-color="#ff1f1a"/>
    </linearGradient>
  </defs>
  <path id="Pfad_58349" data-name="Pfad 58349" class="cls-1" d="M-329.016-376.438h5.117a3.167,3.167,0,0,1,3.108,3.133,3.247,3.247,0,0,1-3.108,3.294h-5.117Zm-3.516-3.875a.6.6,0,0,0-.6.614v21.377a.6.6,0,0,0,.6.614h2.888a.627.627,0,0,0,.6-.614v-8.234h3.485l4.175,8.557a.536.536,0,0,0,.5.29h3.3a.611.611,0,0,0,.534-.937l-4.3-8.2a7.108,7.108,0,0,0,4.646-6.523,6.9,6.9,0,0,0-6.843-6.942Zm53.653,0a.626.626,0,0,0-.6.614v21.377a.626.626,0,0,0,.6.614h2.919a.627.627,0,0,0,.6-.614V-379.7a.627.627,0,0,0-.6-.614Zm38.771,0a.605.605,0,0,0-.6.614v21.377a.605.605,0,0,0,.6.614h12.777a.6.6,0,0,0,.6-.614v-2.648a.605.605,0,0,0-.6-.614h-9.293v-5.651h7.755a.606.606,0,0,0,.6-.614v-2.68a.627.627,0,0,0-.6-.613h-7.755v-5.3h9.293a.6.6,0,0,0,.6-.614V-379.7a.6.6,0,0,0-.6-.614Zm-58.675,7.782h.094l3.14,7.1h-6.311Zm-.032-8.1a.565.565,0,0,0-.533.354l-9.763,21.732a.568.568,0,0,0,.533.84h2.731a.949.949,0,0,0,.91-.646l1.538-3.488h9.387l1.539,3.488a.9.9,0,0,0,.91.646h2.731a.569.569,0,0,0,.534-.84l-9.67-21.732a.534.534,0,0,0-.533-.354Zm40.813,0c-4.992,0-7.064,3.325-7.064,6.2,0,3.81,2.951,5.748,5.9,6.975,2.638,1.1,3.988,2.228,3.988,3.876a2.648,2.648,0,0,1-2.857,2.486c-2.04,0-4.584-1.905-4.74-2a.716.716,0,0,0-1.068.226l-1.13,2c-.282.517-.125.678.157.969a9.954,9.954,0,0,0,6.907,2.518c4.427,0,7.221-3.068,7.221-6.394,0-4.166-3.517-6.039-6.562-7.3-2.543-1.065-3.705-2.1-3.705-3.616a2.523,2.523,0,0,1,2.763-2.26c1.726,0,4.113,1.614,4.364,1.775a.815.815,0,0,0,1.1-.387l1.192-1.841a.814.814,0,0,0-.188-1.066A10.864,10.864,0,0,0-258-380.635Z" transform="translate(333.129 380.635)"/>
</svg>
